<svg xmlns="http://www.w3.org/2000/svg" x="0px" y="0px"
width="50" height="50"
viewBox="0 0 172 172"
style=" fill:#000000;"><g fill="none" fill-rule="nonzero" stroke="none" stroke-width="1" stroke-linecap="butt" stroke-linejoin="miter" stroke-miterlimit="10" stroke-dasharray="" stroke-dashoffset="0" font-family="none" font-weight="none" font-size="none" text-anchor="none" style="mix-blend-mode: normal"><path d="M0,172v-172h172v172z" fill="none"></path><g fill="#6445fc"><path d="M86,17.2c-0.95911,0.002 -1.90239,0.24456 -2.74349,0.70547l-63.06666,34.4c-1.89947,0.92422 -3.13696,2.81796 -3.22069,4.92868c-0.08373,2.11073 0.99984,4.09655 2.82013,5.16833c1.82029,1.07178 4.08245,1.05592 5.88753,-0.04128l2.98984,-1.63489v53.94036h-2.86667c-2.06765,-0.02924 -3.99087,1.05709 -5.03322,2.843c-1.04236,1.78592 -1.04236,3.99474 0,5.78066c1.04236,1.78592 2.96558,2.87225 5.03322,2.843h2.86667h114.66667h2.86667c2.06765,0.02924 3.99087,-1.05709 5.03322,-2.843c1.04236,-1.78592 1.04236,-3.99474 0,-5.78066c-1.04236,-1.78592 -2.96558,-2.87225 -5.03322,-2.843h-2.86667v-53.94036l2.98984,1.63489c1.80508,1.09719 4.06724,1.11305 5.88752,0.04127c1.82029,-1.07178 2.90386,-3.05759 2.82013,-5.16831c-0.08373,-2.11072 -1.3212,-4.00446 -3.22067,-4.92868l-63.06667,-34.4c-0.8411,-0.46091 -1.78439,-0.70346 -2.74349,-0.70547zM80.26667,45.86667h11.46667v9.26068c7.74,1.73147 12.91648,7.00524 13.16875,14.13177h-9.6638c-0.47587,-3.87573 -4.08285,-6.4612 -9.04792,-6.4612c-5.13707,0 -8.53281,2.38139 -8.53281,6.12526c0,3.0272 2.33436,4.76969 8.08489,5.99089l5.9237,1.25417c9.86707,2.07547 14.10938,6.33874 14.10938,13.95261c0,8.19867 -5.25872,13.69514 -14.04219,15.36354v9.18229h-11.46667v-9.15989c-8.43373,-1.5824 -13.73259,-6.7596 -14.04219,-14.33333h9.92136c0.47587,3.97893 4.49476,6.52839 10.27969,6.52839c5.33773,0 9.11511,-2.58377 9.1151,-6.29323c0,-3.1304 -2.44562,-4.93031 -8.46562,-6.22604l-6.39401,-1.36614c-8.944,-1.86907 -13.33672,-6.5266 -13.33672,-14.0086c0,-7.52787 4.98173,-12.8922 12.92239,-14.65807zM14.33333,137.6c-2.06765,-0.02924 -3.99087,1.05709 -5.03322,2.843c-1.04236,1.78592 -1.04236,3.99474 0,5.78066c1.04236,1.78592 2.96558,2.87225 5.03322,2.843h143.33333c2.06765,0.02924 3.99087,-1.05709 5.03322,-2.843c1.04236,-1.78592 1.04236,-3.99474 0,-5.78066c-1.04236,-1.78592 -2.96558,-2.87225 -5.03322,-2.843z"></path></g></g></svg>